<svg xmlns="http://www.w3.org/2000/svg" xmlns:xlink="http://www.w3.org/1999/xlink" viewBox="0 0 1200 600" width="1200" height="600">
  <defs>
    <linearGradient id="sky-gradient" x1="0%" y1="0%" x2="0%" y2="100%">
      <stop offset="0%" style="stop-color:#F8C8DC;stop-opacity:1" />
      <stop offset="100%" style="stop-color:#FADEEA;stop-opacity:1" />
    </linearGradient>
    <radialGradient id="sun-glow" cx="50%" cy="50%" r="50%" fx="50%" fy="50%">
      <stop offset="85%" style="stop-color:white;stop-opacity:1" />
      <stop offset="100%" style="stop-color:white;stop-opacity:0" />
    </radialGradient>
  </defs>

  <rect width="1200" height="600" fill="url(#sky-gradient)" />

  <path d="M0 600 L0 500 C100 450, 200 480, 350 470 C500 460, 600 520, 750 500 C900 480, 1100 550, 1200 520 L1200 600 Z" fill="#F6B9D1" />
  <path d="M0 600 L0 450 C150 400, 250 460, 400 440 C550 420, 650 490, 800 470 C950 450, 1050 510, 1200 480 L1200 600 Z" fill="#F3A9C7" />
  <path d="M0 600 L0 380 C120 350, 280 410, 450 390 C620 370, 700 430, 880 410 C1050 390, 1150 420, 1200 400 L1200 600 Z" fill="#F099B9" />

  <circle cx="600" cy="300" r="160" fill="url(#sun-glow)" />
  <circle cx="600" cy="300" r="150" fill="white" />

  <g fill="none" stroke="#6b2c3a" stroke-width="12" stroke-linecap="round">
    <path d="M1200 100 Q 1000 80, 850 150 T 600 200 T 400 150 T 200 80 T 0 120" />
    <path d="M1200 250 Q 1050 280, 900 300 T 700 280" />
  </g>
  <g fill="none" stroke="#8c3d4d" stroke-width="6" stroke-linecap="round">
    <path d="M860 145 Q 880 120, 910 110" />
    <path d="M900 155 Q 930 165, 960 150" />
    <path d="M620 195 Q 650 170, 680 180" />
    <path d="M410 150 Q 380 130, 350 140" />
    <path d="M220 85 Q 250 60, 280 70" />
    <path d="M1000 290 Q 980 320, 950 330" />
    <path d="M720 280 Q 700 310, 670 300" />
  </g>

  <g>
    <defs>
      <g id="flower">
        <path d="M0 -10 A10 10 0 0 1 9.5 -3 L0 0 Z" fill="#FFC0CB"/>
        <path d="M0 -10 A10 10 0 0 0 -9.5 -3 L0 0 Z" fill="#FFB6C1"/>
        <path d="M9.5 -3 A10 10 0 0 1 5.9 8 L0 0 Z" fill="#FFC0CB"/>
        <path d="M-9.5 -3 A10 10 0 0 0 -5.9 8 L0 0 Z" fill="#FFB6C1"/>
        <path d="M5.9 8 A10 10 0 0 1 -5.9 8 L0 0 Z" fill="#FFC0CB"/>
        <circle cx="0" cy="0" r="2.5" fill="#FDFD96"/>
      </g>
      <g id="petal">
         <path d="M0,0 C-5,-10 5,-10 0,-15 C-5,-10 5,-10 0,0 Z" fill="#FFC0CB"/>
      </g>
    </defs>

    <use xlink:href="#flower" transform="translate(910, 100) scale(1.2) rotate(10)" />
    <use xlink:href="#flower" transform="translate(850, 130) scale(1) rotate(-20)" />
    <use xlink:href="#flower" transform="translate(960, 140) scale(1.1) rotate(30)" />
    <use xlink:href="#flower" transform="translate(685, 175) scale(0.9) rotate(0)" />
    <use xlink:href="#flower" transform="translate(710, 270) scale(1.3) rotate(-15)" />
    <use xlink:href="#flower" transform="translate(650, 290) scale(1) rotate(50)" />
    <use xlink:href="#flower" transform="translate(355, 130) scale(1) rotate(25)" />
    <use xlink:href="#flower" transform="translate(280, 60) scale(1.1) rotate(-10)" />
    <use xlink:href="#flower" transform="translate(200, 90) scale(0.8) rotate(15)" />
    <use xlink:href="#flower" transform="translate(100, 110) scale(1.2) rotate(45)" />
    <use xlink:href="#flower" transform="translate(50, 150) scale(1)" />
    <use xlink:href="#flower" transform="translate(1150, 90) scale(1.2)" />
    <use xlink:href="#flower" transform="translate(1080, 70) scale(1)" />
    <use xlink:href="#flower" transform="translate(1000, 85) scale(1.1)" />
    <use xlink:href="#flower" transform="translate(1100, 240) scale(1)" />
    <use xlink:href="#flower" transform="translate(1030, 260) scale(1.2)" />
    <use xlink:href="#flower" transform="translate(950, 280) scale(0.9)" />

    <use xlink:href="#petal" transform="translate(1000, 200) scale(0.7) rotate(20)" />
    <use xlink:href="#petal" transform="translate(800, 350) scale(0.6) rotate(120)" />
    <use xlink:href="#petal" transform="translate(500, 450) scale(0.8) rotate(-30)" />
    <use xlink:href="#petal" transform="translate(250, 300) scale(0.7) rotate(70)" />
    <use xlink:href="#petal" transform="translate(150, 520) scale(0.9) rotate(-90)" />
     <use xlink:href="#petal" transform="translate(900, 500) scale(0.75) rotate(180)" />
  </g>
</svg>